<?xml version="1.0" standalone="no"?>
<!DOCTYPE svg PUBLIC "-//W3C//DTD SVG 20010904//EN"
 "http://www.w3.org/TR/2001/REC-SVG-20010904/DTD/svg10.dtd">
<svg version="1.0" xmlns="http://www.w3.org/2000/svg"
 width="696.000000pt" height="609.000000pt" viewBox="0 0 696.000000 609.000000"
 preserveAspectRatio="xMidYMid meet">

<g transform="translate(0.000000,609.000000) scale(0.100000,-0.100000)"
fill="#000000" stroke="none">
<path d="M3480 5977 c-8 -8 -60 -40 -115 -72 -55 -31 -219 -127 -365 -213
-146 -85 -317 -185 -380 -222 -63 -37 -275 -160 -470 -275 -195 -114 -407
-238 -470 -274 -445 -259 -798 -466 -813 -479 -16 -14 -17 -98 -15 -1559 l3
-1545 205 -120 c113 -67 275 -161 360 -210 188 -109 203 -118 197 -124 -2 -3
-62 -20 -132 -40 -411 -112 -854 -303 -1130 -487 -90 -60 -265 -198 -265 -209
0 -6 8 -7 18 -3 27 12 195 53 348 85 1306 273 2964 363 4509 244 675 -51 1374
-150 1915 -272 21 -4 23 -3 13 10 -7 8 -57 46 -110 84 -318 227 -716 407
-1207 545 -99 29 -182 53 -184 54 -1 1 165 100 370 220 205 120 376 223 380
229 4 6 8 703 8 1548 l0 1537 -27 18 c-16 11 -100 61 -188 113 -88 51 -239
139 -335 195 -165 97 -358 210 -860 503 -118 69 -300 176 -405 237 -166 97
-297 174 -717 419 -54 31 -100 61 -103 66 -8 14 -18 12 -35 -3z m461 -975 c74
-43 242 -142 374 -219 132 -77 308 -180 390 -228 83 -48 218 -127 300 -175
303 -176 411 -240 468 -274 l57 -35 0 -1185 0 -1184 -102 -60 c-57 -33 -121
-70 -143 -82 -22 -12 -114 -66 -205 -120 -91 -53 -275 -162 -409 -240 l-244
-143 -106 12 c-149 16 -629 41 -794 41 -182 0 -681 -27 -830 -45 l-118 -15
-97 59 c-53 32 -167 99 -252 148 -137 80 -623 364 -722 423 l-38 22 0 1187 0
1186 273 160 c149 87 335 195 412 240 155 90 736 430 915 536 l115 68 311 0
312 1 133 -78z"/>
<path d="M3548 4768 c-45 -117 -61 -193 -60 -288 2 -144 50 -276 182 -500 89
-151 171 -323 196 -410 23 -79 27 -343 6 -399 -23 -65 -5 -41 40 52 94 193
146 398 134 534 -13 166 -65 286 -225 528 -145 219 -203 355 -218 508 -3 37
-9 67 -12 67 -4 0 -23 -42 -43 -92z"/>
<path d="M3281 4679 c-127 -261 -176 -435 -175 -624 0 -197 57 -345 222 -584
120 -174 170 -254 208 -336 59 -129 68 -176 69 -338 0 -170 -1 -169 74 -17 97
197 125 302 125 475 0 207 -48 335 -232 630 -148 237 -213 377 -238 515 -23
128 -15 269 22 383 31 95 4 57 -75 -104z"/>
<path d="M3006 3768 c-79 -252 -74 -408 18 -571 19 -34 94 -127 166 -207 73
-80 149 -171 170 -202 47 -72 90 -177 97 -240 7 -60 15 -53 42 34 56 184 48
336 -27 490 -22 46 -97 159 -166 253 -69 93 -143 201 -165 240 -46 80 -91 201
-91 244 0 58 -19 40 -44 -41z"/>
<path d="M2308 3584 c-30 -15 -53 -69 -86 -199 -62 -238 -82 -422 -63 -580 17
-147 54 -252 168 -477 101 -197 139 -297 168 -448 24 -121 16 -208 -33 -353
-55 -165 -49 -179 86 -185 147 -6 327 51 454 145 138 101 242 291 269 493 9
65 8 114 -6 248 -9 92 -18 224 -19 293 -1 130 -7 152 -45 162 -33 8 -79 -20
-99 -60 -11 -21 -29 -83 -42 -138 -26 -117 -53 -198 -80 -235 -58 -81 -181
-61 -347 57 -58 40 -80 73 -51 73 6 0 37 -20 67 -44 67 -51 118 -79 135 -73 9
4 15 44 20 129 9 165 23 261 57 396 16 62 29 126 29 141 0 40 -27 111 -52 138
-38 40 -55 30 -77 -44 -19 -65 -52 -239 -66 -350 -4 -29 -10 -53 -15 -53 -31
0 -26 141 10 285 50 195 50 274 2 377 -12 27 -23 38 -39 38 -17 0 -23 -6 -23
-23 0 -12 -20 -114 -44 -227 -25 -113 -46 -218 -48 -235 -2 -19 -9 -30 -18
-30 -26 0 -23 80 10 222 54 236 51 361 -11 436 -24 30 -36 36 -53 31 -11 -4
-22 -8 -24 -9 -1 -1 -11 -92 -22 -202 -24 -247 -29 -283 -45 -283 -13 0 -11
58 5 165 5 33 13 116 16 185 6 116 5 129 -16 177 -29 67 -38 75 -72 57z"/>
<path d="M4633 3559 c-19 -29 -28 -58 -31 -98 -6 -76 16 -345 28 -349 6 -2 10
-30 10 -63 0 -51 -2 -59 -19 -59 -15 0 -19 7 -19 33 0 17 -5 70 -12 117 -6 47
-15 137 -20 200 -9 132 -13 146 -43 154 -16 4 -28 -1 -44 -22 -63 -77 -69
-204 -19 -427 18 -82 34 -176 34 -207 1 -51 -1 -58 -18 -58 -15 0 -20 7 -20
28 0 15 -11 81 -25 147 -14 66 -30 143 -35 170 -32 162 -42 195 -60 195 -29 0
-63 -92 -68 -181 -3 -60 2 -100 27 -197 38 -152 45 -207 36 -277 -9 -78 -28
-66 -37 24 -11 102 -33 227 -59 321 -23 88 -38 99 -76 58 -59 -65 -66 -133
-28 -276 35 -132 46 -207 61 -429 4 -69 11 -103 18 -103 25 0 100 43 142 82
27 25 50 38 59 34 24 -9 18 -19 -38 -59 -101 -75 -173 -109 -240 -114 -57 -5
-66 -3 -94 21 -43 36 -68 95 -99 233 -15 65 -36 137 -46 160 -22 47 -68 76
-102 64 -36 -14 -46 -49 -46 -169 0 -62 -7 -177 -16 -255 -27 -242 -10 -368
73 -537 61 -126 170 -237 286 -294 152 -75 356 -108 442 -72 46 20 46 40 -5
194 -46 138 -52 225 -25 354 25 116 93 311 125 353 22 30 112 212 143 290 50
127 68 225 68 375 -1 178 -27 345 -87 540 -27 91 -37 108 -72 127 -20 12 -24
10 -49 -28z"/>
</g>
</svg>
